<svg width="88" height="61" fill="none" xmlns="http://www.w3.org/2000/svg"><path d="M11.504 24.78v-1.596H2.656v19.6h1.736v-8.876h6.636v-1.596H4.392V24.78h7.112zm3.414.588c.812 0 1.344-.532 1.344-1.344s-.532-1.344-1.344-1.344-1.344.532-1.344 1.344.532 1.344 1.344 1.344zm-.812 17.416h1.652v-14.7h-1.652v14.7zm5.443 0h1.652V22.54H19.55v20.244zm14.456-19.6v8.82h-6.972v-8.82h-1.736v19.6h1.736v-9.156h6.972v9.156h1.736v-19.6h-1.736zM44.29 43.12c2.94 0 4.9-1.876 4.9-5.32v-4.732c0-3.444-1.96-5.32-4.9-5.32-2.94 0-4.9 1.876-4.9 5.32V37.8c0 3.444 1.96 5.32 4.9 5.32zm0-1.624c-1.988 0-3.22-1.148-3.22-3.696v-4.732c0-2.548 1.232-3.696 3.22-3.696 1.988 0 3.22 1.148 3.22 3.696V37.8c0 2.548-1.232 3.696-3.22 3.696zm15.822-13.412v8.904c0 2.856-1.344 4.564-3.388 4.564-1.932 0-2.716-1.344-2.716-4.312v-9.156h-1.652v9.408c0 4.032 1.568 5.628 3.948 5.628 1.792 0 3.052-.84 3.808-2.156l.28 1.82h1.372v-14.7h-1.652zm9.237 15.036c2.744 0 4.564-1.624 4.564-4.06 0-5.18-7.56-3.864-7.56-7.308 0-1.512 1.008-2.408 2.744-2.408 1.848 0 2.912 1.092 2.912 2.912h1.652c0-2.716-1.82-4.508-4.564-4.508-2.66 0-4.424 1.568-4.424 3.948 0 5.04 7.56 3.724 7.56 7.308 0 1.568-1.064 2.492-2.884 2.492-2.016 0-3.22-1.148-3.22-3.08h-1.652c0 2.828 1.96 4.704 4.872 4.704zm15.102-4.844c-.224 2.156-1.232 3.164-3.304 3.164-1.932 0-3.108-1.148-3.108-3.612v-1.596h8.036v-3.248c0-3.36-1.96-5.236-4.9-5.236-2.884 0-4.816 1.876-4.816 5.236v4.844c0 3.36 1.876 5.236 4.732 5.236 3.024 0 4.788-1.708 5.012-4.788h-1.652zm-3.248-8.904c2.016 0 3.22 1.148 3.22 3.612v1.708h-6.384v-1.708c0-2.464 1.204-3.612 3.164-3.612z" fill="#272B34"/><path stroke="#5DAC19" stroke-width="2" d="M20.785 19.945L31.927 9.292m-1.437.016l13.539 13.539"/></svg>